<svg xmlns="http://www.w3.org/2000/svg" width="582" height="588"><path fill="#31384A" d="m321.875 25.688 3.748 2.185c3.47 2.024 6.925 4.072 10.377 6.127l2.322 1.382q4.348 2.599 8.678 5.227c18.57 11.178 37.537 21.725 56.371 32.45 8.647 4.927 17.273 9.885 25.84 14.95 7.54 4.45 15.131 8.812 22.72 13.18a3677 3677 0 0 1 25.063 14.593 816 816 0 0 0 15.783 8.995l3.404 1.889q3.22 1.78 6.448 3.541C517.91 138.642 528.37 148.111 534 165c.094 1.447.133 2.899.137 4.35l.015 2.708.002 2.979.013 3.162c.014 3.514.02 7.029.026 10.543l.025 7.539q.034 11.332.052 22.666l.011 6.405a41228 41228 0 0 1 .07 49.017l.001 2.315c.013 12.359.046 24.718.088 37.077q.063 19.045.071 38.09c.004 7.126.015 14.251.048 21.377q.045 10.062.025 20.124 0 3.687.025 7.372C534.77 424.5 534.77 424.5 529 434l-1.474 2.566c-5.5 9.231-13.77 14.486-23.026 19.497a4694 4694 0 0 0-6.168 3.417l-3.181 1.76c-5.029 2.809-9.996 5.72-14.964 8.635-18.119 10.606-36.32 21.07-54.558 31.469-6.841 3.902-13.667 7.827-20.442 11.844-7.29 4.32-14.663 8.488-22.048 12.645A2239 2239 0 0 0 361 538.5a2323 2323 0 0 1-27.784 15.845c-4.523 2.54-9.013 5.116-13.45 7.803-12.537 7.567-24.645 13.591-39.69 10.191-8.49-2.491-15.684-6.13-23.264-10.652q-1.824-1.067-3.65-2.131a1738 1738 0 0 1-7.484-4.392c-5.68-3.348-11.4-6.626-17.115-9.914l-6.454-3.727a3749 3749 0 0 0-36.706-20.935 4472 4472 0 0 0-6.206-3.489l-2.806-1.58-2.5-1.403C172 513 172 513 171 512c-.097-1.91-.122-3.826-.12-5.739l-.004-3.778.01-4.182v-4.375q.001-5.956.013-11.913.007-6.217.008-12.436.005-11.782.021-23.566.015-13.41.022-26.821.016-27.595.05-55.19l6.705 4.465a828 828 0 0 1 5.639 3.808C196.288 380.892 209.767 387.516 225 391l3.629.902c18.484 4.183 40.114 4.24 58.371-.902l2.14-.602c11.24-3.249 21.637-7.729 31.86-13.398l2.984-1.645c7.407-4.399 13.483-10.057 19.634-16.024a146 146 0 0 1 3.374-3.132C366.975 337.698 377.24 309.345 381 283l.524-3.294c.468-3.647.615-7.136.634-10.812l.015-2.06q.021-3.388.032-6.775l.03-4.88q.04-6.603.068-13.207c.022-4.606.05-9.212.076-13.817q.074-13.074.138-26.147.076-14.887.16-29.775.17-30.617.323-61.233l-2.346-.92c-2.704-1.1-5.146-2.393-7.681-3.838l-2.905-1.648-3.005-1.719-2.9-1.648C356.432 96.83 348.718 92.41 341 88v86c-3.163-1.582-5.541-3.134-8.261-5.325-24.885-20.043-56.506-29.029-88.25-26.473-32.668 3.54-64.709 18.722-85.818 44.415C143.876 205.274 135.325 225.67 131 249l-.514 2.534c-.61 4.355-.64 8.604-.644 12.995l-.015 2.887q-.022 4.781-.032 9.562l-.03 6.86q-.04 9.309-.068 18.618c-.022 6.486-.05 12.972-.076 19.459q-.066 16.329-.124 32.659a78450 78450 0 0 1-.174 46.136q-.17 43.145-.323 86.29a80 80 0 0 1-10.219-4.836l-3.043-1.708-3.238-1.831-3.359-1.891Q104.068 473.872 99 471l-2.981-1.687q-7.867-4.454-15.694-8.974a1125 1125 0 0 0-6.61-3.769c-13.66-7.83-24.578-16.92-29.3-32.5-.448-2.232-.545-4.266-.552-6.542l-.015-2.715-.002-2.97-.013-3.165c-.014-3.511-.02-7.022-.026-10.533l-.025-7.54q-.034-11.325-.052-22.651l-.011-6.402a41220 41220 0 0 1-.07-48.997l-.001-2.312c-.013-12.353-.046-24.705-.088-37.058q-.063-19.039-.071-38.077c-.004-7.122-.015-14.244-.048-21.366q-.045-10.056-.025-20.113 0-3.683-.025-7.367C43.23 162.503 43.23 162.503 49 153l1.475-2.567C55.635 141.77 63.204 136.5 72 131.938q2.655-1.418 5.305-2.844l2.803-1.508c5.067-2.779 10.038-5.718 15.017-8.648 7.06-4.147 14.139-8.24 21.313-12.188a681 681 0 0 0 18.626-10.66c6.431-3.806 12.899-7.547 19.374-11.278l3.353-1.932 6.814-3.924Q172.804 74.23 181 69.5l6.5-3.75 3.25-1.875 13-7.5 6.496-3.748a25831 25831 0 0 1 16.324-9.412l3.285-1.893q3.252-1.875 6.507-3.743a898 898 0 0 0 16.15-9.493l3.208-1.92a571 571 0 0 0 5.927-3.6c21.627-12.912 39.448-9.242 60.228 3.122"/><path fill="#FCFDFD" d="M341 88c4.769 1.59 8.4 3.263 12.563 5.875 6.408 3.957 12.918 7.722 19.464 11.445l2.92 1.665q3.525 2.01 7.053 4.015.07 31.881.104 63.763.014 14.805.047 29.61.03 12.912.037 25.825.003 6.83.023 13.659.02 6.445.015 12.89 0 2.349.012 4.698c.177 37.555-12.594 71.827-39.05 98.805-24.44 24.166-57.046 35.01-90.95 34.999-9.778-.085-18.77-.872-28.238-3.249l-2.008-.456c-18.623-4.262-36.6-14.01-50.992-26.544v-2h-2v147c-4.754-1.585-8.048-3.03-12.246-5.555l-1.74-1.039q-2.729-1.634-5.452-3.281l-5.44-3.26q-2.474-1.484-4.944-2.974a425 425 0 0 0-6.877-4.01L130 488a43968 43968 0 0 1-.279-103.107 16098 16098 0 0 0-.107-34.324q-.07-17.648-.084-35.294c-.007-6.598-.022-13.195-.059-19.793q-.05-9.339-.037-18.677 0-3.405-.03-6.809c-.29-35.786 12.118-66.817 36.846-92.683 25.284-24.49 58.982-36.715 93.926-36.618 7.901.15 15.161 1.297 22.824 3.305l3.504.879c18.534 4.95 34.747 12.75 49.324 25.273 2.234 1.974 2.234 1.974 5.172 3.848z"/><path fill="#FDFDFD" d="M449 150c8.762 4.381 17.21 8.718 25.563 13.75l2.86 1.707A2613 2613 0 0 1 485 170l2.6 1c2.4 2 2.4 2 2.887 3.838.223 2.533.276 5.028.283 7.571l.066 2.958c.067 3.286.098 6.572.128 9.859q.06 3.525.124 7.051c.12 7.067.196 14.134.26 21.202q.038 3.998.08 7.993c.118 11.755.22 23.51.278 35.265l.044 8.632.012 2.167c.063 11.563.229 23.123.437 34.684.213 11.885.33 23.767.357 35.654.017 6.669.078 13.332.24 20 .97 41.797.97 41.797-5.24 49.785-5.378 5.58-12.252 8.296-19.57 10.406-4.235 1.326-7.723 3.476-11.423 5.873-5.3 3.062-5.3 3.062-7.563 3.062v-90l-13 8a1540 1540 0 0 1-12.187 7.063c-3.868 2.195-3.868 2.195-7.668 4.504-4.114 2.54-8.13 4.13-12.729 5.64-7.383 2.77-15.077 5.827-19.416 12.793-4.936 13.18-2.85 29.45-2.249 43.214.207 5.389.264 10.779.335 16.17.16 10.546.484 21.079.914 31.616l-1.55.857q-3.522 1.95-7.044 3.904l-2.436 1.349c-7.382 4.094-14.628 8.39-21.853 12.757l-2.742 1.64-2.414 1.458C343 499 343 499 341 499a2904 2904 0 0 1-.674-37.424c-.067-5.794-.159-11.586-.307-17.379-.141-5.596-.219-11.19-.252-16.787q-.036-3.195-.141-6.389c-.517-16.267-.517-16.267 2.65-20.88 3.442-3.543 7.425-5.783 11.724-8.141 2.399-1.993 4.578-4.14 6.75-6.375l1.62-1.648c5.083-5.275 9.508-10.92 13.63-16.977l2.047-3.008c4.895-7.57 8.632-15.465 12.191-23.73l.937-2.15c.867-2.078.867-2.078 1.328-4.2 1.249-4.822 3.142-6.697 7.415-9.264a321 321 0 0 1 6.27-3.273q3.388-1.805 6.773-3.617l3.515-1.859c5.708-3.048 11.265-6.36 16.837-9.649q2.962-1.744 5.925-3.484l2.502-1.476c2.047-1.168 4.151-2.236 6.26-3.29z"/><path fill="#32394B" d="M310.602 201.89 313 204l2.273 1.984c13.47 12.572 24.18 31.443 25.727 50.016v5h-54l-3-9c-4.564-7.92-11.69-12.993-20.496-15.52-10.591-2.032-18.458-.28-27.504 5.52-3.46 2.492-5.67 4.585-7.625 8.375l-1.164 2.21Q225.103 256.793 223 261h-53c2.182-24.006 12.777-43.636 30.938-59.375 32.384-25.691 77.385-26.82 109.664.266"/><path fill="#31384A" d="M171 277h53l6 12c7.19 7.503 13.704 12.068 24.25 12.563 9.19-.292 17.894-3.363 24.75-9.563 1.757-2.11 1.757-2.11 3.188-4.375l1.48-2.21c1.696-2.902 1.696-2.902 3.332-8.415h54c-2.56 23.045-12.512 42.47-30.09 57.723-20.782 16.263-43.287 21.607-69.212 19.05-21.098-2.802-39.818-15.075-53.573-30.992C177.983 309.507 171 293.731 171 277"/><path fill="#31384A" d="M264.75 252.563c4.023 2.616 6.52 5.98 8.25 10.437 1.085 5.998.224 11.036-2.797 16.313-2.85 3.996-6.52 6.38-11.203 7.687-5.992.688-9.284-.13-14.238-3.566-3.366-2.74-5.394-5.33-6.762-9.434-.49-5.565-.768-10.407 1.688-15.5 7.31-7.903 14.98-10.89 25.062-5.937"/><path fill="#434654" d="m245 253 2 3-2.437 1.875c-2.602 1.867-2.602 1.867-3.563 4.125h-2c1.312-3.937 2.92-6.227 6-9"/><path fill="#3C3F4D" d="M137 95v3l-7 4-2-2z"/></svg>