<?xml version="1.0" encoding="UTF-8"?>
<!DOCTYPE svg PUBLIC "-//W3C//DTD SVG 1.1//EN" "http://www.w3.org/Graphics/SVG/1.1/DTD/svg11.dtd">
<svg xmlns="http://www.w3.org/2000/svg" version="1.1" width="512px" height="512px" style="shape-rendering:geometricPrecision; text-rendering:geometricPrecision; image-rendering:optimizeQuality; fill-rule:evenodd; clip-rule:evenodd" xmlns:xlink="http://www.w3.org/1999/xlink">
<g><path style="opacity:0.95" fill="#34363a" d="M 192.5,-0.5 C 205.5,-0.5 218.5,-0.5 231.5,-0.5C 284.972,5.15302 330.139,27.4864 367,66.5C 369,69.1667 369,71.8333 367,74.5C 329.835,97.6619 292.168,119.995 254,141.5C 220.36,124.208 188.86,127.375 159.5,151C 142.939,167.298 134.439,187.131 134,210.5C 133.727,212.329 132.893,213.829 131.5,215C 96.8333,235.667 62.1667,256.333 27.5,277C 23.7103,279.841 19.7103,280.508 15.5,279C 5.44021,253.485 1.27355,226.985 3,199.5C 9.74699,116.114 50.247,55.6135 124.5,18C 146.356,8.37207 169.022,2.2054 192.5,-0.5 Z"/></g>
<g><path style="opacity:1" fill="#fe7575" d="M 340.5,75.5 C 281.65,43.7557 220.983,39.9223 158.5,64C 86.1642,98.0369 44.9975,154.87 35,234.5C 34.5003,242.159 34.3336,249.826 34.5,257.5C 31.0864,260.54 27.0864,262.54 22.5,263.5C 3.80297,184.088 23.803,116.255 82.5,60C 143.841,10.2208 211.841,-1.11249 286.5,26C 311.394,35.6028 333.06,49.9361 351.5,69C 348.108,71.6937 344.441,73.8604 340.5,75.5 Z"/></g>
<g><path style="opacity:0.899" fill="#323639" d="M 478.5,42.5 C 485.387,42.5532 487.887,45.8866 486,52.5C 484.833,53.6667 483.667,54.8333 482.5,56C 456.001,71.4149 429.668,87.0815 403.5,103C 397.452,106.129 393.452,104.462 391.5,98C 391.923,95.3661 393.256,93.3661 395.5,92C 423.23,75.4739 450.897,58.9739 478.5,42.5 Z"/></g>
<g><path style="opacity:1" fill="#fe1a1a" d="M 340.5,75.5 C 311.797,92.9398 282.963,110.273 254,127.5C 216.942,111.457 182.775,115.957 151.5,141C 132.828,159.014 122.495,181.014 120.5,207C 91.6861,223.661 63.0195,240.495 34.5,257.5C 34.3336,249.826 34.5003,242.159 35,234.5C 44.9975,154.87 86.1642,98.0369 158.5,64C 220.983,39.9223 281.65,43.7557 340.5,75.5 Z"/></g>
<g><path style="opacity:0.95" fill="#35363a" d="M 392.5,511.5 C 389.833,511.5 387.167,511.5 384.5,511.5C 361.169,471.501 337.336,431.834 313,392.5C 250.375,423.805 186.875,425.639 122.5,398C 97.5106,386.089 75.6773,369.923 57,349.5C 55.6392,344.726 57.1392,341.226 61.5,339C 96.6648,318.585 131.665,297.919 166.5,277C 168,276.5 169.5,276 171,275.5C 208.9,294.142 242.566,288.476 272,258.5C 284.479,242.733 290.812,224.733 291,204.5C 292.167,203.333 293.333,202.167 294.5,201C 361.167,161.333 427.833,121.667 494.5,82C 505.963,76.7957 510.129,80.2957 507,92.5C 469.511,230.79 432.178,369.123 395,507.5C 394.338,508.984 393.504,510.317 392.5,511.5 Z"/></g>
<g><path style="opacity:1" fill="#fe7575" d="M 84.5,340.5 C 138.46,371.656 195.127,377.156 254.5,357C 283.16,346.594 308.326,330.761 330,309.5C 330.198,307.618 330.698,305.952 331.5,304.5C 331.081,322.581 339.081,335.414 355.5,343C 381.445,349.779 398.945,340.612 408,315.5C 409.884,283.547 394.717,267.547 362.5,267.5C 381.204,234.018 390.538,198.018 390.5,159.5C 423.532,139.164 456.865,119.164 490.5,99.5C 490.833,99.8333 491.167,100.167 491.5,100.5C 456.637,229.956 421.47,359.289 386,488.5C 363.317,450.916 341.151,413.416 319.5,376C 318.167,375.333 316.833,375.333 315.5,376C 259.733,408.202 201.399,413.535 140.5,392C 115.176,381.344 92.5088,366.677 72.5,348C 76.3599,345.239 80.3599,342.739 84.5,340.5 Z"/></g>
<g><path style="opacity:0.891" fill="#323539" d="M 366.5,108.5 C 375.745,107.899 378.411,111.732 374.5,120C 368.35,122.925 364.683,121.092 363.5,114.5C 363.628,112.045 364.628,110.045 366.5,108.5 Z"/></g>
<g><path style="opacity:0.893" fill="#323639" d="M 337.5,126.5 C 343.765,126.363 346.265,129.363 345,135.5C 344.535,136.931 343.701,138.097 342.5,139C 324.5,149.667 306.5,160.333 288.5,171C 281.22,172.719 278.053,169.885 279,162.5C 279.833,161 281,159.833 282.5,159C 300.929,148.127 319.262,137.294 337.5,126.5 Z"/></g>
<g><path style="opacity:0.944" fill="#34363a" d="M 204.5,157.5 C 234.206,155.92 253.373,169.253 262,197.5C 266.027,222.441 257.193,241.275 235.5,254C 208.511,264.665 186.345,258.498 169,235.5C 156.608,211.356 159.775,189.522 178.5,170C 186.334,163.915 195,159.748 204.5,157.5 Z"/></g>
<g><path style="opacity:1" fill="#fe1a1a" d="M 390.5,159.5 C 390.538,198.018 381.204,234.018 362.5,267.5C 343.942,272.951 333.609,285.285 331.5,304.5C 330.698,305.952 330.198,307.618 330,309.5C 308.326,330.761 283.16,346.594 254.5,357C 195.127,377.156 138.46,371.656 84.5,340.5C 113.196,323.312 142.029,306.312 171,289.5C 205.852,304.426 238.685,300.926 269.5,279C 290.284,260.931 301.618,238.098 303.5,210.5C 332.275,193.046 361.275,176.046 390.5,159.5 Z"/></g>
<g><path style="opacity:1" fill="#fd1a1a" d="M 244.5,188.5 C 223.366,202.24 201.7,215.24 179.5,227.5C 169.019,205.962 173.686,188.462 193.5,175C 207.547,168.482 221.213,169.149 234.5,177C 238.416,180.41 241.749,184.243 244.5,188.5 Z"/></g>
<g><path style="opacity:1" fill="#fd7575" d="M 244.5,188.5 C 252.689,202.958 252.189,217.291 243,231.5C 227.721,248.009 210.221,250.842 190.5,240C 185.566,236.902 181.899,232.735 179.5,227.5C 201.7,215.24 223.366,202.24 244.5,188.5 Z"/></g>
<g><path style="opacity:0.894" fill="#323639" d="M 135.5,245.5 C 141.31,243.97 144.977,245.97 146.5,251.5C 145.966,253.614 144.966,255.448 143.5,257C 124.298,268.433 104.965,279.6 85.5,290.5C 79.1219,288.168 77.7885,284.002 81.5,278C 99.7294,267.392 117.729,256.559 135.5,245.5 Z"/></g>
<g><path style="opacity:1" fill="#36373a" d="M 362.5,267.5 C 394.717,267.547 409.884,283.547 408,315.5C 398.945,340.612 381.445,349.779 355.5,343C 339.081,335.414 331.081,322.581 331.5,304.5C 333.609,285.285 343.942,272.951 362.5,267.5 Z"/></g>
<g><path style="opacity:1" fill="#fc7575" d="M 364.5,279.5 C 386.847,279.345 397.347,290.345 396,312.5C 391.068,328.555 380.235,335.388 363.5,333C 347.874,327.258 341.374,316.092 344,299.5C 347.419,289.247 354.252,282.58 364.5,279.5 Z"/></g>
<g><path style="opacity:0.897" fill="#323539" d="M 51.5,295.5 C 56.8064,294.641 60.1397,296.807 61.5,302C 58.9119,309.066 54.7453,310.233 49,305.5C 47.8613,301.579 48.6946,298.246 51.5,295.5 Z"/></g>
<g><path style="opacity:0.827" fill="#323639" d="M 23.5,312.5 C 32.3058,312.464 34.6391,316.297 30.5,324C 24.7612,326.464 21.0945,324.631 19.5,318.5C 19.8662,315.744 21.1995,313.744 23.5,312.5 Z"/></g>
</svg>
